<svg xmlns="http://www.w3.org/2000/svg" viewBox="0 0 900 650">
<defs><linearGradient id="g" x1="0" x2="1"><stop stop-color="#0f2b44"/><stop offset="1" stop-color="#0a1525"/></linearGradient><linearGradient id="a" x1="0" x2="1"><stop stop-color="#d79d42"/><stop offset="1" stop-color="#f5d59a"/></linearGradient></defs>
<rect width="900" height="650" fill="url(#g)"/><circle cx="720" cy="100" r="160" fill="#1f8ea3" opacity=".18"/><path d="M120 570h660" stroke="#789" stroke-width="4" opacity=".35"/>
<g stroke="#d79d42" stroke-width="10" fill="none" stroke-linecap="round" stroke-linejoin="round"><path d="M275 560L470 120l195 440"/><path d="M342 410h256M385 315h170M425 225h84"/><path d="M470 120v440"/></g>
<g stroke="#dfe8f2" stroke-width="7" fill="none" opacity=".75"><path d="M150 560c140-120 210-120 350 0s210 120 300 0"/><path d="M182 490c110-84 205-80 310 0s200 82 268 0" opacity=".4"/></g>
<rect x="80" y="70" width="260" height="118" rx="24" fill="#fff" opacity=".08" stroke="#fff" stroke-opacity=".13"/><text x="110" y="120" fill="#fff" font-family="Inter,Arial" font-size="34" font-weight="800">Well Design</text><text x="110" y="156" fill="#b9c7d8" font-family="Inter,Arial" font-size="20">Engineering • Safety • Execution</text>
<rect x="565" y="380" width="245" height="112" rx="24" fill="#fff" opacity=".08" stroke="#fff" stroke-opacity=".13"/><text x="592" y="427" fill="#fff" font-family="Inter,Arial" font-size="30" font-weight="800">20+ Years</text><text x="592" y="463" fill="#b9c7d8" font-family="Inter,Arial" font-size="20">Global operations</text>
</svg>
